# xmcd
#
# Track frame offsets:
#	150
#	16725
#	32946
#	47999
#	64029
#	82139
#	99620
#	112132
#	129421
#	149627
#
# Disc length: 2171 seconds
#
# Revision: 0
# Processed by: cddbd v1.5.2PL0 Copyright (c) Steve Scherf et al.
# Submitted via: EasyCDDAExtractor 10.0.6.1
#
DISCID=9208790a
DTITLE=Faithful Heart - Wanted Man
DYEAR=2000
DGENRE=Gospel
TTITLE0=Cowboys Dream
TTITLE1=Wanted Man
TTITLE2=What About You
TTITLE3=Cowboy Camp Meeting
TTITLE4=Pray It Through
TTITLE5=Heaven's My Home
TTITLE6=Come On In
TTITLE7=This Kind Of Love
TTITLE8=I Just Can't Wait
TTITLE9=His Kind Of Love
EXTD=
EXTT0=
EXTT1=
EXTT2=
EXTT3=
EXTT4=
EXTT5=
EXTT6=
EXTT7=
EXTT8=
EXTT9=
PLAYORDER=
